<svg width="1387" height="241" viewBox="0 0 1387 241" fill="none" xmlns="http://www.w3.org/2000/svg">
<path d="M101.44 10.44H142.4L168.32 85.64L194.56 10.44H235.2L196.16 113.8L224.96 186.12L289.28 9.79999H337.28L246.4 237H208.32L168.32 141.64L128.64 237H90.56L0 9.79999H47.36L112 186.12L140.16 113.8L101.44 10.44ZM411.655 240.2C398.215 240.2 386.055 237.96 375.175 233.48C364.295 228.787 355.015 222.493 347.335 214.6C339.655 206.493 333.682 197.32 329.415 187.08C325.362 176.627 323.335 165.64 323.335 154.12C323.335 138.12 326.855 123.507 333.895 110.28C341.148 97.0533 351.388 86.4933 364.615 78.6C378.055 70.4933 393.842 66.44 411.975 66.44C430.322 66.44 446.002 70.4933 459.015 78.6C472.028 86.4933 481.948 97.0533 488.775 110.28C495.815 123.293 499.335 137.373 499.335 152.52C499.335 155.08 499.228 157.747 499.015 160.52C498.802 163.08 498.588 165.213 498.375 166.92H368.775C369.628 175.453 372.082 182.92 376.135 189.32C380.402 195.72 385.735 200.627 392.135 204.04C398.748 207.24 405.788 208.84 413.255 208.84C421.788 208.84 429.788 206.813 437.255 202.76C444.935 198.493 450.162 192.947 452.935 186.12L489.735 196.36C485.682 204.893 479.815 212.467 472.135 219.08C464.668 225.693 455.815 230.92 445.575 234.76C435.335 238.387 424.028 240.2 411.655 240.2ZM367.815 139.72H455.495C454.642 131.187 452.188 123.827 448.135 117.64C444.295 111.24 439.175 106.333 432.775 102.92C426.375 99.2933 419.228 97.48 411.335 97.48C403.655 97.48 396.615 99.2933 390.215 102.92C384.028 106.333 378.908 111.24 374.855 117.64C371.015 123.827 368.668 131.187 367.815 139.72ZM620.818 240.2C608.018 240.2 596.604 237.32 586.578 231.56C576.551 225.8 568.658 217.907 562.898 207.88V237H525.458V3.39999H568.338V98.76C574.311 88.7333 582.098 80.84 591.698 75.08C601.511 69.32 612.924 66.44 625.938 66.44C636.818 66.44 646.738 68.7867 655.698 73.48C664.658 77.96 672.338 84.2533 678.738 92.36C685.351 100.467 690.364 109.747 693.778 120.2C697.404 130.653 699.218 141.853 699.218 153.8C699.218 165.747 697.191 176.947 693.138 187.4C689.298 197.853 683.858 207.133 676.818 215.24C669.778 223.133 661.458 229.32 651.858 233.8C642.471 238.067 632.124 240.2 620.818 240.2ZM608.978 203.72C615.804 203.72 621.991 202.44 627.538 199.88C633.298 197.107 638.204 193.48 642.258 189C646.524 184.52 649.724 179.293 651.858 173.32C654.204 167.133 655.378 160.733 655.378 154.12C655.378 144.947 653.458 136.52 649.618 128.84C645.991 120.947 640.871 114.653 634.258 109.96C627.858 105.267 620.284 102.92 611.538 102.92C605.351 102.92 599.378 104.413 593.618 107.4C588.071 110.173 583.058 114.013 578.578 118.92C574.311 123.827 570.898 129.373 568.338 135.56V175.56C569.618 179.827 571.644 183.667 574.418 187.08C577.404 190.493 580.818 193.48 584.658 196.04C588.498 198.387 592.444 200.307 596.498 201.8C600.764 203.08 604.924 203.72 608.978 203.72ZM736.948 237V110.92H714.868V78.28H736.948V68.04C736.948 54.1733 739.188 42.2267 743.668 32.2C748.361 21.96 754.868 14.0667 763.188 8.51999C771.721 2.97333 781.641 0.199997 792.948 0.199997C799.774 0.199997 806.601 1.05333 813.428 2.75998C820.468 4.46665 827.401 6.91999 834.228 10.12L825.588 42.44C822.388 40.7333 818.654 39.3466 814.388 38.28C810.121 37 806.068 36.36 802.228 36.36C794.974 36.36 789.428 38.92 785.588 44.04C781.748 49.16 779.828 56.6266 779.828 66.44V78.28H820.788V110.92H779.828V237H736.948ZM920.398 240.2C906.744 240.2 894.478 237.96 883.598 233.48C872.718 228.787 863.438 222.387 855.758 214.28C848.291 206.173 842.531 196.893 838.478 186.44C834.424 175.987 832.398 165 832.398 153.48C832.398 141.747 834.424 130.653 838.478 120.2C842.531 109.747 848.291 100.467 855.758 92.36C863.438 84.2533 872.718 77.96 883.598 73.48C894.478 68.7867 906.744 66.44 920.398 66.44C934.051 66.44 946.211 68.7867 956.878 73.48C967.758 77.96 977.038 84.2533 984.718 92.36C992.398 100.467 998.158 109.747 1002 120.2C1006.05 130.653 1008.08 141.747 1008.08 153.48C1008.08 165 1006.05 175.987 1002 186.44C998.158 196.893 992.398 206.173 984.718 214.28C977.251 222.387 968.078 228.787 957.198 233.48C946.318 237.96 934.051 240.2 920.398 240.2ZM876.558 153.48C876.558 163.293 878.478 172.04 882.318 179.72C886.158 187.187 891.384 193.053 897.998 197.32C904.611 201.587 912.078 203.72 920.398 203.72C928.504 203.72 935.864 201.587 942.478 197.32C949.091 192.84 954.318 186.867 958.158 179.4C962.211 171.72 964.238 162.973 964.238 153.16C964.238 143.56 962.211 134.92 958.158 127.24C954.318 119.56 949.091 113.587 942.478 109.32C935.864 105.053 928.504 102.92 920.398 102.92C912.078 102.92 904.611 105.16 897.998 109.64C891.384 113.907 886.158 119.88 882.318 127.56C878.478 135.027 876.558 143.667 876.558 153.48ZM1136.86 106.44C1123.85 106.44 1112.22 109 1101.98 114.12C1091.74 119.027 1084.38 126.173 1079.9 135.56V237H1037.02V69.32H1076.38V105.16C1082.35 93.64 1089.93 84.5733 1099.1 77.96C1108.27 71.3467 1117.98 67.72 1128.22 67.08C1130.57 67.08 1132.38 67.08 1133.66 67.08C1134.94 67.08 1136.01 67.1867 1136.86 67.4V106.44ZM1148.31 187.4C1148.31 176.52 1151.3 167.027 1157.27 158.92C1163.46 150.6 1171.99 144.2 1182.87 139.72C1193.75 135.24 1206.23 133 1220.31 133C1227.35 133 1234.5 133.533 1241.75 134.6C1249.01 135.667 1255.3 137.373 1260.63 139.72V130.76C1260.63 120.093 1257.43 111.88 1251.03 106.12C1244.85 100.36 1235.57 97.48 1223.19 97.48C1214.02 97.48 1205.27 99.08 1196.95 102.28C1188.63 105.48 1179.89 110.173 1170.71 116.36L1156.95 88.2C1168.05 80.9467 1179.35 75.5067 1190.87 71.88C1202.61 68.2533 1214.87 66.44 1227.67 66.44C1251.57 66.44 1270.13 72.4133 1283.35 84.36C1296.79 96.3067 1303.51 113.373 1303.51 135.56V189C1303.51 193.48 1304.26 196.68 1305.75 198.6C1307.46 200.52 1310.13 201.693 1313.75 202.12V237C1309.91 237.64 1306.39 238.173 1303.19 238.6C1300.21 239.027 1297.65 239.24 1295.51 239.24C1286.98 239.24 1280.47 237.32 1275.99 233.48C1271.73 229.64 1269.06 224.947 1267.99 219.4L1267.03 210.76C1259.78 220.147 1250.71 227.4 1239.83 232.52C1228.95 237.64 1217.86 240.2 1206.55 240.2C1195.46 240.2 1185.43 237.96 1176.47 233.48C1167.73 228.787 1160.79 222.493 1155.67 214.6C1150.77 206.493 1148.31 197.427 1148.31 187.4ZM1252.63 196.04C1254.98 193.48 1256.9 190.92 1258.39 188.36C1259.89 185.8 1260.63 183.453 1260.63 181.32V164.36C1255.51 162.227 1249.97 160.627 1243.99 159.56C1238.02 158.28 1232.37 157.64 1227.03 157.64C1215.94 157.64 1206.77 160.093 1199.51 165C1192.47 169.693 1188.95 175.987 1188.95 183.88C1188.95 188.147 1190.13 192.2 1192.47 196.04C1194.82 199.88 1198.23 202.973 1202.71 205.32C1207.19 207.667 1212.53 208.84 1218.71 208.84C1225.11 208.84 1231.41 207.667 1237.59 205.32C1243.78 202.76 1248.79 199.667 1252.63 196.04ZM1343.58 237V69.32H1386.46V237H1343.58ZM1343.58 45.96V3.39999H1386.46V45.96H1343.58Z" fill="white"/>
</svg>
