<svg width="1120" height="536" viewBox="0 0 1120 536" fill="none" xmlns="http://www.w3.org/2000/svg">
<path d="M238.4 121.16H363.84V153.16H238.4V121.16ZM275.52 133.96L311.36 135.88C306.24 186.12 287.68 219.08 254.72 239.88C248.64 233.8 233.28 222.28 225.28 217.8C257.6 201.8 272.32 173.96 275.52 133.96ZM343.68 121.16H380.16C380.16 121.16 380.16 130.12 379.84 134.28C377.92 188.04 374.72 211.08 367.36 220.36C361.28 227.4 354.24 229.96 345.6 231.24C337.6 232.2 324.48 232.2 310.08 231.88C309.44 221.96 305.92 208.2 300.8 199.56C312 200.84 321.6 200.84 326.4 200.84C330.56 200.84 333.44 200.2 336 197.64C339.84 192.52 342.08 174.6 343.68 125.96V121.16ZM101.44 141.96H229.12V175.24H101.44V141.96ZM94.08 204.68H234.56V238.6H94.08V204.68ZM168.96 273.48H230.72V306.76H168.96V273.48ZM148.16 109.64H183.36V222.28H148.16V109.64ZM154.24 224.84H188.16V366.6H154.24V224.84ZM132.48 287.88C149.44 355.08 185.92 365 254.08 365C278.4 365.32 364.48 365.32 393.6 363.72C387.52 372.36 381.12 390.28 378.88 401.8H254.08C168.64 401.8 127.04 385.8 104.96 295.88L132.48 287.88ZM104 254.92L137.6 256.84C136.96 317.96 132.8 373.32 115.52 409.48C109.12 405 93.12 396.36 84.8 392.84C101.44 361.16 103.68 309.64 104 254.92ZM282.56 275.08V314.76H334.4V275.08H282.56ZM246.72 244.36H372.8V345.48H246.72V244.36ZM412.8 184.84H553.28V213H412.8V184.84ZM438.72 324.04H531.84V349H438.72V324.04ZM439.36 365.96H529.6V394.44H439.36V365.96ZM471.04 139.72H503.04V275.72H471.04V139.72ZM473.92 297.48H499.52V380.68H473.92V297.48ZM535.36 110.28L554.56 135.56C517.44 143.24 464.96 148.04 422.08 149C420.8 141.96 417.28 131.08 414.08 124.36C456 122.12 505.6 117 535.36 110.28ZM499.2 205C510.4 211.08 548.16 236.04 556.48 242.76L537.6 272.52C526.08 258.76 497.28 232.2 483.2 221L499.2 205ZM424.32 155.4L448.96 149C453.44 158.92 458.56 172.36 460.48 180.36L434.88 188.04C432.96 179.72 428.48 165.64 424.32 155.4ZM522.88 145.16L550.4 153.16C543.68 168.84 536.96 184.52 531.2 195.4L507.84 188.04C513.28 176.2 519.68 157.64 522.88 145.16ZM465.92 198.92L487.36 211.08C472.32 238.6 446.72 272.2 422.08 289.16C419.52 279.24 412.8 264.52 408 255.24C429.12 242.76 453.76 218.44 465.92 198.92ZM421.76 280.52H551.36V405.64H521.92V308.68H450.24V409.48H421.76V280.52ZM562.24 122.76H616.32V154.76H562.24V122.76ZM599.36 122.76H630.08V372.04C630.08 387.4 627.52 396.68 618.24 402.12C608.96 407.56 596.16 408.52 577.6 408.52C576.96 399.56 572.48 385.16 568 376.84C579.2 377.16 590.72 377.16 594.24 376.84C598.08 376.84 599.36 375.88 599.36 371.72V122.76ZM636.8 123.4H685.44V155.4H636.8V123.4ZM672.32 123.4H704V371.4C704 387.72 701.12 397.32 691.2 402.76C681.6 408.2 667.52 409.16 647.68 409.16C646.4 400.2 641.6 384.84 636.8 376.2C649.6 377.16 662.72 376.84 666.88 376.84C671.04 376.84 672.32 375.24 672.32 370.76V123.4ZM557.12 186.44L581.12 180.04C589.12 199.88 597.76 226.12 601.28 241.8L575.68 249.8C572.48 233.8 564.48 206.6 557.12 186.44ZM632.32 183.88L656.96 179.4C663.68 199.24 670.72 226.12 673.28 241.8L647.04 247.88C644.8 231.56 638.72 204.68 632.32 183.88ZM628.8 302.6C641.6 291.08 661.12 271.56 680 252.04L694.72 276.04C678.4 293.96 660.48 312.84 644.16 329.16L628.8 302.6ZM554.24 309C567.68 295.88 588.48 274.12 608.64 251.72L623.68 276.04C606.4 296.2 586.88 317.64 569.6 335.24L554.24 309ZM891.2 122.76H1018.56V261H891.2V225.16H979.84V158.92H891.2V122.76ZM870.08 122.76H907.52V240.84C907.52 293 901.44 366.6 861.44 410.44C855.36 403.08 840.32 389.32 832 384.52C867.2 345.16 870.08 286.6 870.08 240.52V122.76ZM970.88 245C978.56 306.44 992 344.2 1034.24 376.84C1024.64 385.16 1013.12 398.6 1008.32 410.12C958.08 368.2 942.72 320.2 933.76 249.8L970.88 245ZM744.64 207.56H841.28V236.36H744.64V207.56ZM745.6 119.24H840.32V148.36H745.6V119.24ZM744.64 251.08H841.28V280.2H744.64V251.08ZM729.28 162.44H851.84V192.84H729.28V162.44ZM761.28 295.56H841.6V392.84H761.28V362.44H808.96V325.96H761.28V295.56ZM744 295.56H776.32V405.64H744V295.56Z" fill="#1E1E20"/>
</svg>
